<?xml version="1.0" standalone="no"?>
<!DOCTYPE svg PUBLIC "-//W3C//DTD SVG 20010904//EN"
 "http://www.w3.org/TR/2001/REC-SVG-20010904/DTD/svg10.dtd">
<svg version="1.0" xmlns="http://www.w3.org/2000/svg"
 width="250.000000pt" height="250.000000pt" viewBox="0 0 250.000000 250.000000"
 preserveAspectRatio="xMidYMid meet">
<metadata>
Created by potrace 1.11, written by Peter Selinger 2001-2013
</metadata>
<g transform="translate(0.000000,250.000000) scale(0.100000,-0.100000)"
fill="#000000" stroke="none">
<path d="M768 2018 l482 -483 482 483 483 482 -965 0 -965 0 483 -482z"/>
<path d="M0 1250 l0 -965 482 483 483 482 -483 482 -482 483 0 -965z"/>
<path d="M2015 1730 l-480 -480 483 -483 482 -482 0 963 c0 529 -1 962 -3 962
-1 0 -218 -216 -482 -480z"/>
<path d="M765 480 l-480 -480 965 0 965 0 -480 480 c-264 264 -482 480 -485
480 -3 0 -221 -216 -485 -480z"/>
</g>
</svg>
